<svg xmlns="http://www.w3.org/2000/svg" xmlns:lucid="lucid" width="2146" height="748"><g lucid:page-tab-id="0_0"><path d="M-278-188h2500V812H-278z" fill="#f2f3f5"/><path d="M102.2 352.95a6 6 0 0 1 6-6h100.9a6 6 0 0 1 6 6v87a6 6 0 0 1-6 6H108.2a6 6 0 0 1-6-6z" stroke="#000" stroke-opacity="0" stroke-width="3" fill="#fff7a1"/><path d="M669.67 644.1c0 17.4-14.64 31.52-32.7 31.52-18.07 0-32.7-14.1-32.7-31.5s14.63-31.5 32.7-31.5c18.06 0 32.7 14.1 32.7 31.5z" stroke="#000" stroke-opacity="0" stroke-width="3" fill="#ffe342"/><path d="M1938.63 484.47a2.08 2.08 0 0 0-3.94 0l-5.15 14.8a8.62 8.62 0 0 1-7.97 5.8l-15.67.3a2.08 2.08 0 0 0-1.2 3.76l12.48 9.47a8.62 8.62 0 0 1 3.04 9.37l-4.54 15a2.08 2.08 0 0 0 3.2 2.32l12.86-8.97a8.62 8.62 0 0 1 9.85 0l12.86 8.96a2.08 2.08 0 0 0 3.18-2.33l-4.54-15a8.62 8.62 0 0 1 3.05-9.37l12.5-9.47a2.08 2.08 0 0 0-1.23-3.75l-15.67-.32a8.62 8.62 0 0 1-7.97-5.8z" stroke="#000" stroke-opacity="0" stroke-width="3" fill="#cc4e00"/><path d="M669.67 518.23c0 17.4-14.64 31.5-32.7 31.5-18.07 0-32.7-14.1-32.7-31.5s14.63-31.5 32.7-31.5c18.06 0 32.7 14.1 32.7 31.5zM669.67 378.46c0 17.4-14.64 31.5-32.7 31.5-18.07 0-32.7-14.1-32.7-31.5s14.63-31.5 32.7-31.5c18.06 0 32.7 14.1 32.7 31.5zM669.67 238.7c0 17.4-14.64 31.5-32.7 31.5-18.07 0-32.7-14.1-32.7-31.5s14.63-31.52 32.7-31.52c18.06 0 32.7 14.1 32.7 31.5zM669.67 88.8c0 17.4-14.64 31.52-32.7 31.52-18.07 0-32.7-14.1-32.7-31.5s14.63-31.52 32.7-31.52c18.06 0 32.7 14.1 32.7 31.5z" stroke="#000" stroke-opacity="0" stroke-width="3" fill="#ffe342"/><path d="M1217.9 644.1c0 17.4-14.65 31.52-32.7 31.52-18.07 0-32.7-14.1-32.7-31.5s14.63-31.5 32.7-31.5c18.05 0 32.7 14.1 32.7 31.5zM1217.9 518.23c0 17.4-14.65 31.5-32.7 31.5-18.07 0-32.7-14.1-32.7-31.5s14.63-31.5 32.7-31.5c18.05 0 32.7 14.1 32.7 31.5zM1217.9 378.46c0 17.4-14.65 31.5-32.7 31.5-18.07 0-32.7-14.1-32.7-31.5s14.63-31.5 32.7-31.5c18.05 0 32.7 14.1 32.7 31.5zM1217.9 238.7c0 17.4-14.65 31.5-32.7 31.5-18.07 0-32.7-14.1-32.7-31.5s14.63-31.52 32.7-31.52c18.05 0 32.7 14.1 32.7 31.5z" stroke="#000" stroke-opacity="0" stroke-width="3" fill="#fcce14"/><path d="M671.67 88.6l19.95-.14m19.95-.13l39.9-.25m19.95-.13l39.9-.25m19.95-.13l39.9-.25m19.96-.13l39.9-.26m19.95-.13l39.9-.24m19.95-.13l39.9-.25m19.95-.13l39.9-.25m19.96-.13l19.95-.13" stroke="#f2f3f5" stroke-width="4" fill="none"/><path d="M671.73 90.6h-2.2l.14-1.8-.03-1.3-.1-.9h2.16z" stroke="#f2f3f5" stroke-width=".05" fill="#f2f3f5"/><path d="M1150.44 85.54h2.05" stroke="#f2f3f5" stroke-width="4" fill="none"/><path d="M1643.12 238.7c0 17.4-14.94 31.5-33.38 31.5-18.43 0-33.37-14.1-33.37-31.5s14.94-31.52 33.38-31.52c18.43 0 33.37 14.1 33.37 31.5zM1643.1 518.23c0 17.4-14.93 31.5-33.36 31.5s-33.37-14.1-33.37-31.5 14.94-31.5 33.37-31.5 33.37 14.1 33.37 31.5z" stroke="#000" stroke-opacity="0" stroke-width="3" fill="#fc9432"/><path d="M1219.9 238.57l333.74.1" stroke="#fff" stroke-width="4" fill="none"/><path d="M1219.95 236.57v4h-2.2l.15-1.88-.03-1.3-.1-.83z" stroke="#fff" stroke-width=".05" fill="#fff"/><path d="M1569.9 238.7l-14.27 4.62v-9.27z" stroke="#fff" stroke-width="4" fill="#fff"/><path d="M1645.04 236.66h22.07m22.08 0h44.14m22.07 0h44.12m22.07 0h44.13m22.07 0h22.06" stroke="#f2f3f5" stroke-width="4" fill="none"/><path d="M1645.1 234.66v4h-2l-.06-2.16-.28-1.84z" stroke="#f2f3f5" stroke-width=".05" fill="#f2f3f5"/><path d="M1909.8 236.66h2.06" stroke="#f2f3f5" stroke-width="4" fill="none"/><path d="M1645.1 518.14l247.82-.63" stroke="#fff" stroke-width="4" fill="none"/><path d="M1645.17 520.14h-2.2l.14-1.9-.06-2.1h2.12z" stroke="#fff" stroke-width=".05" fill="#fff"/><path d="M1909.2 517.47l-14.27 4.67-.02-9.27z" stroke="#fff" stroke-width="4" fill="#fff"/><path d="M217.12 396.5l4.35.1 5.97.36 5.65.6 5.35.8 5.14.97 4.95 1.16 4.8 1.33 4.67 1.52 4.6 1.7 4.52 1.9 4.5 2.12 4.48 2.35 4.53 2.6 4.6 2.93 4.7 3.27 4.87 3.7 5.1 4.23 5.46 4.9 5.94 5.84 6.7 7.14 8.05 9.34 11.1 14.07 55.33 74.4 10.73 12.44 9.5 10.12 8.87 8.7 8.5 7.64 8.3 6.88 8.23 6.24 8.23 5.72 8.3 5.28 8.48 4.9 8.68 4.53 8.96 4.22 9.3 3.9 9.7 3.62 10.22 3.32 10.8 3 11.5 2.7 12.3 2.35 13.26 1.97 14.4 1.5.8.06" stroke="#fff" stroke-width="4" stroke-linejoin="round" fill="none"/><path d="M217.2 394.5l-.07 4-2.02-.04v-4z" stroke="#fff" stroke-width=".05" fill="#fff"/><path d="M597.8 643.78l-14.5 3.88.5-9.26z" stroke="#fff" stroke-width="4" fill="#fff"/><path d="M217.12 396.5l10.8.22 11.25.7 10.08 1.06 9.17 1.35 8.48 1.6 7.95 1.88 7.58 2.12 7.34 2.4 7.26 2.7 7.33 3.07 7.65 3.6 8.37 4.37 9.98 5.77 15.85 10.12 42.32 27.83 13.18 7.6 11.95 6.27 11.7 5.5 11.96 5.03 12.54 4.66 13.44 4.36 14.68 4.1 16.32 3.82 18.45 3.5 21.22 3.13 24.87 2.6 22.73 1.42" stroke="#fff" stroke-width="4" stroke-linejoin="round" fill="none"/><path d="M217.2 394.5l-.07 4-2.02-.04v-4z" stroke="#fff" stroke-width=".05" fill="#fff"/><path d="M597.8 517.96L583.35 522l.38-9.26z" stroke="#fff" stroke-width="4" fill="#fff"/><path d="M217.12 396.42l48.9-.94 35.6-2.22 151.4-14.3 76.06-1.43 52.45.65" stroke="#fff" stroke-width="4" stroke-linejoin="round" fill="none"/><path d="M217.2 398.4l-2.1.06v-4l2.03-.05z" stroke="#fff" stroke-width=".05" fill="#fff"/><path d="M597.8 378.38l-14.33 4.46.1-9.27z" stroke="#fff" stroke-width="4" fill="#fff"/><path d="M217.12 396.4l7.25-.14 8.44-.53 7.8-.8 7.26-1.08 6.83-1.3 6.48-1.53 6.2-1.73 6.02-1.96 5.87-2.2 5.8-2.42 5.8-2.73 5.87-3.1 6.06-3.5 6.4-4.05 6.98-4.85 8.04-6.12 10.5-8.7 56.7-50.3 10.43-7.92 9.56-6.65 9.2-5.82 9.08-5.24 9.17-4.8 9.4-4.42 9.76-4.1 10.27-3.82 10.88-3.53 11.67-3.26 12.63-2.95 13.8-2.63 15.27-2.25 17.04-1.78 19.26-1.2 12.7-.27" stroke="#fff" stroke-width="4" stroke-linejoin="round" fill="none"/><path d="M217.2 398.4l-2.1.06v-4l2.03-.05z" stroke="#fff" stroke-width=".05" fill="#fff"/><path d="M597.8 238.7l-14.27 4.66v-9.27z" stroke="#fff" stroke-width="4" fill="#fff"/><path d="M217.12 396.4l2.94-.05 4.7-.3 4.52-.47 4.35-.64 4.2-.8 4.1-.96 4-1.12 3.95-1.28 3.9-1.45 3.84-1.62 3.85-1.8 3.85-2 3.9-2.26 3.93-2.5 4.02-2.8 4.13-3.14 4.28-3.54 4.47-4.03 4.73-4.63 5.06-5.4 5.52-6.4 6.17-7.8 7.2-9.9 9.07-13.7 14.56-24.2 45.54-78.62 11.64-17.56 9.82-13.53 8.85-11.2 8.26-9.56 7.85-8.36 7.6-7.44 7.4-6.67 7.3-6.05 7.26-5.5 7.24-5.04 7.28-4.62 7.36-4.25 7.48-3.9 7.63-3.6 7.83-3.28 8.07-3 8.36-2.7 8.7-2.44 9.1-2.14 9.57-1.82 10.1-1.5 10.75-1.12 8.2-.5" stroke="#fff" stroke-width="4" stroke-linejoin="round" fill="none"/><path d="M217.2 398.4l-2.1.06v-4l2.03-.05z" stroke="#fff" stroke-width=".05" fill="#fff"/><path d="M597.8 88.92l-14.2 4.87-.15-9.28z" stroke="#fff" stroke-width="4" fill="#fff"/><path d="M671.67 238.7h458.08" stroke="#fff" stroke-width="4" fill="none"/><path d="M671.72 240.7h-2.2l.15-2-.03-1.3-.08-.7h2.16z" stroke="#fff" stroke-width=".05" fill="#fff"/><path d="M1146 238.7l-14.25 4.62v-9.27z" stroke="#fff" stroke-width="4" fill="#fff"/><path d="M671.67 378.46h458.08" stroke="#fff" stroke-width="4" fill="none"/><path d="M671.72 380.46h-2.2l.15-2-.03-1.3-.08-.7h2.16z" stroke="#fff" stroke-width=".05" fill="#fff"/><path d="M1146 378.46l-14.25 4.63v-9.28z" stroke="#fff" stroke-width="4" fill="#fff"/><path d="M671.67 518.23h458.08" stroke="#fff" stroke-width="4" fill="none"/><path d="M671.72 520.23h-2.2l.15-2-.03-1.3-.08-.7h2.16z" stroke="#fff" stroke-width=".05" fill="#fff"/><path d="M1146 518.23l-14.25 4.63v-9.27z" stroke="#fff" stroke-width="4" fill="#fff"/><path d="M671.67 644.1h458.08" stroke="#fff" stroke-width="4" fill="none"/><path d="M671.72 646.1h-2.2l.15-2-.03-1.28-.08-.7h2.16z" stroke="#fff" stroke-width=".05" fill="#fff"/><path d="M1146 644.1l-14.25 4.65v-9.27z" stroke="#fff" stroke-width="4" fill="#fff"/><path d="M1219.9 378.5l11.72.24 12.47.78 11.44 1.2 10.63 1.57 9.97 1.9 9.44 2.2 9.05 2.53 8.75 2.84 8.58 3.2 8.53 3.58 8.6 4.05 8.9 4.66 9.47 5.47 10.65 6.77 13.44 9.37 64.58 48.32 10.65 6.75 9.47 5.48 8.9 4.66 8.6 4.04 8.53 3.58 8.58 3.2 8.76 2.84 9.04 2.52 9.45 2.22 9.97 1.9 10.63 1.57 11.45 1.2 3.47.2" stroke="#fff" stroke-width="4" stroke-linejoin="round" fill="none"/><path d="M1220 376.5l-.1 4-2.16-.04.16-2-.03-1.3-.1-.7z" stroke="#fff" stroke-width=".05" fill="#fff"/><path d="M1569.9 518l-14.43 4.1.35-9.27z" stroke="#fff" stroke-width="4" fill="#fff"/><path d="M1219.9 518.23h333.73" stroke="#fff" stroke-width="4" stroke-linejoin="round" fill="none"/><path d="M1219.95 520.23h-2.2l.15-2-.03-1.3-.1-.7h2.18z" stroke="#fff" stroke-width=".05" fill="#fff"/><path d="M1569.9 518.23l-14.27 4.63v-9.27z" stroke="#fff" stroke-width="4" fill="#fff"/><path d="M1219.9 644.07l13.15-.27 13.63-.85 12.4-1.3 11.46-1.7 10.7-2.03 10.08-2.36 9.65-2.7 9.35-3.03 9.2-3.43 9.24-3.88 9.47-4.46 10.07-5.27 11.38-6.6 14.86-9.45 60.04-40.62 11.38-6.58 10.08-5.27 9.47-4.46 9.24-3.88 9.2-3.42 9.36-3.04 9.65-2.7 10.1-2.36 10.67-2.04 11.45-1.68 12.42-1.3 6.05-.38" stroke="#fff" stroke-width="4" stroke-linejoin="round" fill="none"/><path d="M1220 646.07l-2.26.05.16-2-.03-1.3-.1-.7 2.14-.05z" stroke="#fff" stroke-width=".05" fill="#fff"/><path d="M1569.9 518.45l-14.1 5.13-.3-9.27z" stroke="#fff" stroke-width="4" fill="#fff"/></g></svg>